<svg height="512pt" viewBox="0 0 512 512.002" width="512pt" xmlns="http://www.w3.org/2000/svg"><path d="m384.621094 504.5c15.898437 0 27.929687-14.492188 24.886718-30.097656-14.03125-71.976563-77.425781-126.300782-153.507812-126.300782s-139.472656 54.324219-153.503906 126.300782c-3.042969 15.605468 8.984375 30.097656 24.886718 30.097656zm0 0" fill="#8ee2cf"/><path d="m223.867188 351.441406c-61.261719 12.796875-109.371094 61.40625-121.371094 122.960938-3.042969 15.605468 8.984375 30.097656 24.886718 30.097656h118.921876c-46.574219-30.945312-45.222657-120.082031-22.4375-153.058594zm0 0" fill="#6fce91"/><path d="m343.566406 374.902344c-24.984375-16.917969-55.121094-26.800782-87.566406-26.800782s-62.578125 9.882813-87.566406 26.800782c7.019531 37.875 43.550781 66.746094 87.566406 66.746094 44.019531 0 80.546875-28.871094 87.566406-66.746094zm0 0" fill="#f7ef87"/><path d="m168.445312 374.949219c4.289063 23.0625 19.519532 42.777343 40.714844 54.664062-2.832031-30.5625 3.203125-61.523437 14.707032-78.171875-20.179688 4.214844-38.917969 12.335938-55.421876 23.507813zm0 0" fill="#efd176"/><path d="m95.277344 178.011719c-20.082032-20.078125-52.636719-20.078125-72.71875 0-20.078125 20.082031-20.078125 52.636719 0 72.71875 20.082031 20.078125 52.636718 20.078125 72.71875 0 20.078125-20.082031 20.078125-52.636719 0-72.71875zm0 0" fill="#ffd4be"/><path d="m465.328125 164.402344c-27.578125-6.769532-55.425781 10.101562-62.195313 37.679687-6.769531 27.582031 10.097657 55.429688 37.679688 62.199219 27.578125 6.769531 55.425781-10.101562 62.195312-37.679688 6.769532-27.582031-10.097656-55.429687-37.679687-62.199218zm0 0" fill="#ffbf9e"/><path d="m461.710938 214.371094c0 113.613281-108.617188 187.914062-205.710938 187.914062-97.089844 0-205.710938-74.300781-205.710938-187.914062 0-113.609375 92.101563-183.585938 205.710938-183.585938 113.613281 0 205.710938 69.976563 205.710938 183.585938zm0 0" fill="#ffd4be"/><path d="m256 402.285156c27.78125 0 56.503906-6.09375 83.355469-17.4375-223.769531-10.332031-243.097657-225.253906-174.382813-337.304687-67.945312 27.128906-114.683594 85.902343-114.683594 166.828125 0 113.613281 108.621094 187.914062 205.710938 187.914062zm0 0" fill="#ffbf9e"/><path d="m180.375 265.265625c0-19.449219-19.796875-35.214844-44.21875-35.214844-24.425781 0-44.222656 15.765625-44.222656 35.214844 0 19.445313 19.796875 35.214844 44.222656 35.214844 24.421875 0 44.21875-15.769531 44.21875-35.214844zm0 0" fill="#eda1ab"/><path d="m420.066406 265.265625c0-19.449219-19.796875-35.214844-44.21875-35.214844s-44.222656 15.765625-44.222656 35.214844c0 19.445313 19.800781 35.214844 44.222656 35.214844s44.21875-15.769531 44.21875-35.214844zm0 0" fill="#eda1ab"/><g fill="#4e5660"><path d="m161.925781 237.632812c-4.140625 0-7.5-3.355468-7.5-7.5v-15.613281c0-4.144531 3.359375-7.5 7.5-7.5 4.144531 0 7.5 3.355469 7.5 7.5v15.613281c0 4.144532-3.355469 7.5-7.5 7.5zm0 0"/><path d="m350.074219 237.632812c-4.140625 0-7.5-3.355468-7.5-7.5v-15.613281c0-4.144531 3.359375-7.5 7.5-7.5 4.144531 0 7.5 3.355469 7.5 7.5v15.613281c0 4.144532-3.355469 7.5-7.5 7.5zm0 0"/><path d="m256 249.625c-11.671875 0-22.773438-5.054688-30.457031-13.871094-2.71875-3.121094-2.394531-7.859375.726562-10.582031 3.125-2.71875 7.863281-2.394531 10.582031.726563 4.835938 5.546874 11.8125 8.730468 19.148438 8.730468s14.316406-3.183594 19.148438-8.726562c2.71875-3.125 7.457031-3.449219 10.582031-.726563 3.121093 2.71875 3.449219 7.457031.726562 10.578125-7.683593 8.816406-18.78125 13.871094-30.457031 13.871094zm0 0"/><path d="m256 7.5c142.695312 0 212.242188 88.03125 217.917969 163.660156.8125 10.816406-7.957031 19.890625-18.789063 19.386719-55.019531-2.5625-158.496094-34.882813-199.128906-85.015625-40.628906 50.132812-144.109375 82.453125-199.128906 85.015625-10.832032.503906-19.597656-8.570313-18.785156-19.382813 5.675781-75.632812 75.21875-163.664062 217.914062-163.664062zm0 0"/></g><path d="m353.214844 124.007812c-53.691406-53.691406-140.742188-53.691406-194.433594 0-53.691406 53.691407-53.691406 140.742188 0 194.433594 53.691406 53.6875 140.742188 53.6875 194.433594 0 53.691406-53.691406 53.691406-140.742187 0-194.433594zm0 0" fill="#8eafe2"/><path d="m352.734375 318.910156c-139.660156 22.652344-185.773437-157.289062-126.8125-231.863281-61.460937 13.71875-107.40625 68.578125-107.40625 134.175781 0 75.929688 61.554687 137.488282 137.488281 137.488282 37.71875-.003907 71.890625-15.199219 96.730469-39.800782zm0 0" fill="#6a96d7"/><path d="m276.128906 245.035156h51.792969c11.113281 0 20.125-9.011718 20.125-20.128906 0-11.113281-9.011719-20.125-20.125-20.125h-51.792969v-51.792969c0-11.117187-9.011718-20.125-20.128906-20.125-11.113281 0-20.125 9.007813-20.125 20.125v51.792969h-51.792969c-11.117187 0-20.128906 9.011719-20.128906 20.128906 0 5.558594 2.253906 10.585938 5.894531 14.230469 3.644532 3.640625 8.675782 5.894531 14.230469 5.894531h51.796875v51.792969c0 5.558594 2.253906 10.589844 5.894531 14.230469 3.640625 3.644531 8.671875 5.894531 14.230469 5.894531 11.117188 0 20.128906-9.007813 20.128906-20.125zm0 0" fill="#fff"/><path d="m101.007812 134.21875c-1.238281 0-2.496093-.308594-3.652343-.957031-3.617188-2.023438-4.90625-6.589844-2.882813-10.207031 8.515625-15.226563 35.4375-42.195313 58.230469-49.789063 3.933594-1.3125 8.179687.8125 9.488281 4.742187 1.308594 3.929688-.8125 8.179688-4.746094 9.488282-18.464843 6.152344-42.613281 29.886718-49.882812 42.882812-1.375 2.457032-3.925781 3.839844-6.554688 3.839844zm0 0" fill="#383c43"/><path d="m393.234375 99.464844c-1.851563 0-3.703125-.683594-5.152344-2.054688-11.25-10.636718-22.910156-18.472656-31.992187-21.5-3.929688-1.308594-6.054688-5.554687-4.746094-9.484375 1.308594-3.929687 5.554688-6.054687 9.488281-4.746093 15.175781 5.058593 30.042969 17.730468 37.554688 24.835937 3.011719 2.84375 3.144531 7.589844.296875 10.601563-1.472656 1.558593-3.460938 2.347656-5.449219 2.347656zm0 0" fill="#383c43"/><path d="m480.519531 162.230469c-2.007812-15.21875-6.363281-30.339844-13-45.050781-1.703125-3.777344-6.148437-5.457032-9.917969-3.753907-3.777343 1.703125-5.457031 6.144531-3.753906 9.921875 7.132813 15.808594 11.367188 32.085938 12.589844 48.375.230469 3.078125-.816406 5.976563-2.949219 8.171875-1.3125 1.347657-2.898437 2.289063-4.640625 2.78125-.195312.035157-.386718.078125-.574218.128907-.902344.199218-1.835938.292968-2.796876.25-17.636718-.824219-39.929687-4.769532-63.132812-11.15625-20.226562-55.734376-73.707031-95.660157-136.34375-95.660157-62.632812 0-116.117188 39.925781-136.339844 95.660157-23.203125 6.386718-45.5 10.332031-63.136718 11.15625-.96875.042968-1.910157-.054688-2.816407-.253907-.179687-.050781-.359375-.089843-.542969-.125-1.746093-.488281-3.335937-1.429687-4.648437-2.78125-2.132813-2.195312-3.183594-5.097656-2.953125-8.171875.09375-1.242187.207031-2.488281.335938-3.730468.007812-.058594.015624-.117188.023437-.175782 3.917969-37.378906 23.6875-74.070312 54.679687-101.203125 38.5625-33.765625 92.300782-51.613281 155.398438-51.613281 78.855469 0 142.960938 27.996094 180.507812 78.828125 2.460938 3.332031 7.15625 4.039063 10.488282 1.578125 3.332031-2.460938 4.039062-7.15625 1.578125-10.488281-23.425781-31.714844-79.59375-84.917969-192.574219-84.917969-66.789062 0-123.941406 19.132812-165.28125 55.328125-32.707031 28.640625-53.980469 67.203125-59.238281 106.902344-19.261719 10.136719-31.480469 30.148437-31.480469 52.140625 0 30.203125 23.1875 55.421875 52.691406 58.566406 11.066406 31.65625 31.183594 60.347656 59.242188 83.753906 11.175781 9.328125 23.28125 17.546875 36.019531 24.570313-27.269531 23.902343-45.871094 56.058593-52.820313 91.707031-2.648437 13.589844 3.621094 27.460938 15.601563 34.511719 1.195313.703125 2.503906 1.039062 3.796875 1.039062 2.570312 0 5.070312-1.320312 6.46875-3.695312 2.101562-3.570313.910156-8.167969-2.65625-10.269531-6.511719-3.832032-9.921875-11.355469-8.488281-18.714844 6.699219-34.359375 25.328125-65.152344 52.640625-87.207032.765625.351563 1.53125.695313 2.296875 1.042969 6.15625 16.515625 17.855469 31.273438 33.234375 41.835938 16.804687 11.539062 36.851562 17.640625 57.976562 17.640625 21.121094 0 41.167969-6.101563 57.972656-17.640625 15.378907-10.5625 27.078126-25.320313 33.234376-41.835938.765624-.347656 1.53125-.691406 2.296874-1.042969 27.308594 22.054688 45.941407 52.847657 52.640626 87.207032 1.011718 5.203125-.347657 10.542968-3.730469 14.648437-3.410157 4.140625-8.4375 6.515625-13.796875 6.515625h-235.402344c-4.140625 0-7.5 3.355469-7.5 7.5 0 4.140625 3.359375 7.5 7.5 7.5h235.402344c9.855468 0 19.101562-4.367187 25.371094-11.976562 6.246093-7.578125 8.75-17.441406 6.875-27.058594-6.949219-35.644531-25.550782-67.804688-52.820313-91.707031 12.738281-7.023438 24.84375-15.242188 36.023437-24.566407 28.058594-23.40625 48.171876-52.101562 59.238282-83.757812 29.507812-3.144531 52.691406-28.363281 52.691406-58.566406 0-21.992188-12.21875-42.007813-31.480469-52.140625zm-465.519531 52.140625c0-13.613282 6.285156-26.207032 16.636719-34.414063 1.171875 3.867188 3.25 7.441407 6.121093 10.394531 1.765626 1.8125 3.773438 3.335938 5.949219 4.535157-.605469 6.4375-.917969 12.96875-.917969 19.484375 0 14.511718 1.753907 28.730468 5.136719 42.492187-18.878906-4.921875-32.925781-22.195312-32.925781-42.492187zm241-123.132813c71.675781 0 129.984375 58.308594 129.984375 129.984375 0 71.671875-58.308594 129.984375-129.984375 129.984375-71.671875 0-129.984375-58.308593-129.984375-129.984375 0-71.675781 58.3125-129.984375 129.984375-129.984375zm0 342.910157c-29.3125 0-56.046875-14.289063-70.351562-36.257813 22.867187 7.761719 46.757812 11.894531 70.351562 11.894531 23.597656 0 47.488281-4.132812 70.355469-11.894531-14.308594 21.96875-41.042969 36.257813-70.355469 36.257813zm134.460938-88.972657c-12.972657 10.820313-27.265626 20.054688-42.371094 27.523438-.609375.199219-1.195313.484375-1.742188.839843-2.339844 1.128907-4.699218 2.226563-7.074218 3.269532-.683594.1875-1.332032.46875-1.9375.835937-25.957032 11.125-53.867188 17.140625-81.335938 17.140625-27.460938 0-55.367188-6.015625-81.324219-17.136718-.609375-.371094-1.265625-.652344-1.953125-.839844-2.375-1.046875-4.730468-2.140625-7.066406-3.273438-.550781-.355468-1.132812-.636718-1.746094-.839844-15.105468-7.464843-29.398437-16.703124-42.371094-27.523437-41.109374-34.292969-63.75-80.746094-63.75-130.800781 0-5.484375.25-10.976563.710938-16.40625 16.160156-.867188 35.699219-4.097656 56.191406-9.25-2.402344 10.453125-3.675781 21.335937-3.675781 32.507812 0 79.945313 65.039063 144.984375 144.988281 144.984375 79.945313 0 144.984375-65.039062 144.984375-144.984375 0-11.171875-1.273437-22.054687-3.675781-32.507812 20.488281 5.152344 40.03125 8.382812 56.191406 9.25.460938 5.429687.710938 10.917968.710938 16.40625-.003906 50.054687-22.644532 96.507812-63.753906 130.804687zm73.613281-88.3125c3.386719-13.761719 5.136719-27.980469 5.136719-42.492187 0-6.519532-.3125-13.046875-.914063-19.484375 2.171875-1.199219 4.183594-2.722657 5.949219-4.535157 2.867187-2.953124 4.949218-6.53125 6.121094-10.394531 10.351562 8.207031 16.632812 20.800781 16.632812 34.414063 0 20.296875-14.046875 37.570312-32.925781 42.492187zm-279.992188-4.328125h44.292969v44.292969c0 7.378906 2.875 14.316406 8.089844 19.535156 5.21875 5.21875 12.15625 8.089844 19.535156 8.089844 7.382812 0 14.320312-2.871094 19.535156-8.089844 5.21875-5.21875 8.09375-12.15625 8.09375-19.535156v-44.292969h44.292969c7.378906 0 14.316406-2.875 19.535156-8.089844 5.21875-5.21875 8.09375-12.15625 8.089844-19.539062 0-15.230469-12.390625-27.625-27.625-27.625h-44.292969v-44.292969c0-15.234375-12.394531-27.625-27.625-27.625-7.382812 0-14.320312 2.871094-19.539062 8.089844s-8.089844 12.15625-8.089844 19.535156v44.292969h-44.292969c-7.378906 0-14.316406 2.875-19.535156 8.089844-5.21875 5.21875-8.09375 12.15625-8.09375 19.539062 0 7.378906 2.875 14.316406 8.09375 19.53125 5.21875 5.21875 12.15625 8.09375 19.535156 8.09375zm-8.929687-36.554687c2.382812-2.382813 5.554687-3.699219 8.929687-3.699219h51.792969c4.140625 0 7.5-3.355469 7.5-7.5v-51.792969c0-3.371093 1.3125-6.542969 3.695312-8.925781 2.386719-2.386719 5.558594-3.699219 8.929688-3.699219 6.960938 0 12.628906 5.664063 12.628906 12.625v51.792969c0 4.144531 3.355469 7.5 7.5 7.5h51.792969c6.960937 0 12.625 5.664062 12.625 12.628906 0 3.371094-1.3125 6.542969-3.695313 8.929688-2.386718 2.382812-5.558593 3.695312-8.929687 3.695312h-51.792969c-4.144531 0-7.5 3.359375-7.5 7.5v51.792969c0 3.375-1.316406 6.542969-3.699218 8.929687-2.382813 2.382813-5.554688 3.695313-8.929688 3.695313-3.371094 0-6.542969-1.3125-8.925781-3.695313-2.386719-2.386718-3.699219-5.554687-3.699219-8.929687v-51.792969c0-4.140625-3.359375-7.5-7.5-7.5h-51.792969c-3.371093 0-6.542969-1.3125-8.929687-3.699218-2.382813-2.382813-3.699219-5.554688-3.699219-8.925782 0-3.375 1.316406-6.546875 3.699219-8.929687zm0 0"/></svg>