<svg id="Layer_5" enable-background="new 0 0 64 64" height="512" viewBox="0 0 64 64" width="512" xmlns="http://www.w3.org/2000/svg"><path d="m28 40-1.67 18.36c-.19 2.06-1.91 3.64-3.98 3.64h-12.7c-2.07 0-3.79-1.58-3.98-3.64l-1.67-18.36z" fill="#fcd770"/><path d="m30 37v2c0 .55-.45 1-1 1h-1-24-1c-.55 0-1-.45-1-1v-2c0-.55.45-1 1-1h1 24 1c.55 0 1 .45 1 1z" fill="#ffeaa7"/><path d="m4 36v-22h24v2 6 14z" fill="#e6e9ed"/><path d="m50 38-2.02 21.33c-.17 1.52-1.45 2.67-2.98 2.67-.1 0-.21-.01-.33-.02-1.65-.18-2.83-1.67-2.65-3.31l1.12-20.67z" fill="#838f9b"/><path d="m57.98 58.67c.18 1.64-1 3.13-2.65 3.31-.12.01-.23.02-.33.02-1.53 0-2.81-1.15-2.98-2.67l-2.02-21.33h6.89z" fill="#838f9b"/><path d="m56.89 38h-6.89-6.86l.75-13.89c.06-1.15-.85-2.11-2-2.11h-13.89v-6h20.81l-.81 13 2 2 2-2-.81-13h.81c5.52 0 10 4.48 10 10v9c0 1.66-1.34 3-3 3h-2z" fill="#5cd6b3"/><path d="m51.19 16 .81 13-2 2-2-2 .81-13h.19 1z" fill="#ff826e"/><circle cx="50" cy="9" fill="#f0d0b4" r="7"/><path d="m12.832 57.555 3.168-4.752 3.168 4.752 1.664-1.11-3.63-5.445 3.63-5.445-1.664-1.11-3.168 4.752-3.168-4.752-1.664 1.11 3.63 5.445-3.63 5.445z"/><path d="m54.81 15.377c1.933-1.461 3.19-3.772 3.19-6.377 0-4.411-3.589-8-8-8s-8 3.589-8 8c0 2.39 1.059 4.533 2.726 6h-15.726v-2h-26v22c-1.103 0-2 .897-2 2v2c0 1.103.897 2 2 2h.087l1.587 17.453c.235 2.592 2.375 4.547 4.979 4.547h12.694c2.604 0 4.744-1.955 4.979-4.547l1.587-17.453h.087c1.103 0 2-.897 2-2v-2c0-1.103-.897-2-2-2v-12h12.889c.277 0 .535.11.726.312s.288.466.273.743l-1.863 34.504c-.244 2.19 1.34 4.172 3.54 4.418.16.016.298.023.436.023 2.041 0 3.75-1.53 3.976-3.576l1.023-10.809 1.024 10.826c.225 2.029 1.934 3.559 3.975 3.559.139 0 .276-.007.445-.024 2.191-.245 3.775-2.227 3.536-4.359l-1.032-19.617h1.052c2.206 0 4-1.794 4-4v-9c0-5.093-3.484-9.376-8.19-10.623zm-3.836 13.235-.974.974-.974-.974.726-11.612h.496zm-6.974-19.612c0-3.309 2.691-6 6-6s6 2.691 6 6-2.691 6-6 6-6-2.691-6-6zm-18.666 49.271c-.141 1.556-1.425 2.729-2.987 2.729h-12.694c-1.562 0-2.846-1.173-2.987-2.729l-1.571-17.271h21.809zm3.667-19.271h-26.001v-2h26zm-24.001-4v-20h22v20zm41.987 24.22c-.12 1.087-1.058 1.883-2.209 1.768-1.095-.122-1.887-1.112-1.761-2.265l1.066-19.723h4.818zm8.243 1.766c-.085.009-.158.014-.231.014-1.02 0-1.874-.766-1.984-1.764l-1.916-20.236h4.847l1.041 19.779c.122 1.096-.67 2.086-1.757 2.207zm5.77-25.986c0 1.103-.897 2-2 2h-1.157l-.844-16.053-1.997.105.839 15.948h-11.65l.694-12.838c.044-.819-.254-1.631-.818-2.226-.565-.595-1.358-.936-2.178-.936h-12.889v-4h18.748l-.774 12.388 3.026 3.026 3.026-3.026-.774-12.375c4.846.135 8.748 4.109 8.748 8.987z"/><path d="m20.498 19c-.746 0-1.081-.298-1.587-.748-.596-.528-1.411-1.252-2.916-1.252s-2.32.724-2.915 1.253c-.505.45-.84.747-1.584.747s-1.078-.297-1.583-.747c-.595-.529-1.409-1.253-2.913-1.253v2c.743 0 1.077.297 1.583.747.594.528 1.408 1.253 2.913 1.253s2.319-.724 2.914-1.253c.506-.45.84-.747 1.585-.747.746 0 1.08.298 1.587.747.595.529 1.41 1.253 2.916 1.253 1.505 0 2.32-.724 2.915-1.252.506-.45.841-.748 1.587-.748v-2c-1.506 0-2.321.724-2.916 1.253-.506.449-.841.747-1.586.747z"/><path d="m7 23h18v2h-18z"/><path d="m7 27h14v2h-14z"/><path d="m23 27h2v2h-2z"/><path d="m7 31h18v2h-18z"/></svg>