<?xml version="1.0" encoding="iso-8859-1"?>
<!-- Generator: Adobe Illustrator 19.0.0, SVG Export Plug-In . SVG Version: 6.00 Build 0)  -->
<svg version="1.1" id="Capa_1" xmlns="http://www.w3.org/2000/svg" xmlns:xlink="http://www.w3.org/1999/xlink" x="0px" y="0px"
	 viewBox="0 0 480 480" style="enable-background:new 0 0 480 480;" xml:space="preserve">
<path style="fill:#BDDBFF;" d="M8,325.56h178.08l5.36-16L327.2,173.8l56.56,56.56l-95.2,95.2H472v-240H8V325.56z M349.824,151.16
	l22.624-22.624c12.496-12.497,32.758-12.498,45.255-0.001c0,0,0.001,0.001,0.001,0.001l11.312,11.312
	c12.497,12.496,12.498,32.758,0.001,45.255c0,0-0.001,0.001-0.001,0.001L406.4,207.736l-22.632,22.624L327.2,173.792L349.824,151.16
	z"/>
<path style="fill:#7ED63E;" d="M327.2,173.8L191.44,309.56H248l73.536-73.536L248,309.56v56.56l40.56-40.56l95.2-95.2L327.2,173.8z"
	/>
<g>
	<path style="fill:#898890;" d="M429.016,185.112c12.497-12.496,12.498-32.758,0.001-45.255c0,0-0.001-0.001-0.001-0.001
		l-11.312-11.312c-12.496-12.497-32.758-12.498-45.255-0.001c0,0-0.001,0.001-0.001,0.001l-22.624,22.616l56.576,56.576
		L429.016,185.112z"/>
	<path style="fill:#898890;" d="M191.44,309.56l-5.36,16l-22.96,68.88L248,366.12v-56.56H191.44z"/>
</g>
<path style="fill:#5EAC24;" d="M327.198,173.802l22.628-22.628l56.569,56.569l-22.628,22.628L327.198,173.802z"/>
<g>
	<path style="fill:#231F20;" d="M240,229.56c4.418,0,8-3.582,8-8v-104c0-4.418-3.582-8-8-8s-8,3.582-8,8v104
		C232,225.978,235.582,229.56,240,229.56z"/>
	<path style="fill:#231F20;" d="M112,301.56c4.418,0,8-3.582,8-8v-176c0-4.418-3.582-8-8-8c-4.418,0-8,3.582-8,8v176
		C104,297.978,107.582,301.56,112,301.56z"/>
	<path style="fill:#231F20;" d="M472,77.56H8c-4.418,0-8,3.582-8,8v240c0,4.418,3.582,8,8,8h167l-19.472,58.352
		c-1.396,4.192,0.87,8.722,5.062,10.118c0.816,0.272,1.67,0.41,2.53,0.41c0.859,0.003,1.713-0.135,2.528-0.408l84.88-28.32
		c0.096,0,0.168-0.104,0.264-0.144c0.274-0.115,0.541-0.246,0.8-0.392c0.619-0.304,1.194-0.689,1.712-1.144
		c0.12-0.104,0.272-0.144,0.384-0.256l38.184-38.216H472c4.418,0,8-3.582,8-8v-240C480,81.142,476.418,77.56,472,77.56L472,77.56z
		 M349.824,162.48l45.256,45.256l-11.312,11.32l-45.264-45.264L349.824,162.48z M406.4,196.424l-45.264-45.264l16.976-16.968
		c9.496-9.064,24.44-9.064,33.936,0l11.312,11.312c9.369,9.372,9.369,24.564,0,33.936L406.4,196.424z M197.192,317.56H240v42.8
		l-64.232,21.424L197.192,317.56z M256,312.872l71.2-71.2c3.124-3.126,3.122-8.192-0.004-11.316s-8.192-3.122-11.316,0.004
		l-71.2,71.2h-33.928L327.2,185.112l45.248,45.248L256,346.808V312.872z M464,317.56H307.872l126.8-126.8
		c15.615-15.62,15.615-40.94,0-56.56l-11.312-11.312c-15.62-15.615-40.94-15.615-56.56,0L185.784,303.904
		c-0.131,0.154-0.252,0.317-0.36,0.488c-0.246,0.284-0.471,0.586-0.672,0.904c-0.244,0.38-0.453,0.782-0.624,1.2
		c-0.08,0.184-0.208,0.328-0.28,0.528l-3.528,10.536H16v-224h448V317.56z"/>
</g>
<g>
</g>
<g>
</g>
<g>
</g>
<g>
</g>
<g>
</g>
<g>
</g>
<g>
</g>
<g>
</g>
<g>
</g>
<g>
</g>
<g>
</g>
<g>
</g>
<g>
</g>
<g>
</g>
<g>
</g>
</svg>
