<svg width="512" height="512" viewBox="0 0 512 512" fill="none" xmlns="http://www.w3.org/2000/svg">
<g id="death 1">
<g id="Group">
<path id="Vector" d="M243.746 296.522H207.868C207.868 268.532 207.868 249.574 207.868 217.756H105.762V296.522H69.9839C41.7579 296.522 18.8779 319.402 18.8779 347.628V459.52H294.854C294.854 443.602 294.854 363.718 294.854 347.628C294.852 319.402 271.972 296.522 243.746 296.522Z" fill="#F7A8A8"/>
<path id="Vector_2" d="M156.864 260.648C90.746 260.648 37.146 207.048 37.146 140.93V90.786C37.146 74.166 50.618 60.694 67.238 60.694H276.582V140.93C276.584 207.048 222.984 260.648 156.864 260.648V260.648Z" fill="#4671C6"/>
<path id="Vector_3" d="M258.83 149.022V139.474C258.83 83.668 213.178 38.428 156.866 38.428C100.552 38.428 54.902 83.668 54.902 139.474V149.022C37.196 148.662 23.15 162.768 23.15 179.818C23.15 198.024 39.044 212.424 57.596 210.462C68.118 255.168 108.558 288.474 156.868 288.474C205.182 288.474 245.618 255.164 256.14 210.462C274.666 212.422 290.586 198.048 290.586 179.818C290.582 162.76 276.524 148.664 258.83 149.022Z" fill="#F6A8A8"/>
<path id="Vector_4" d="M276.584 129.424H116.612C82.53 129.424 54.9 101.794 54.9 67.712C54.9 33.63 82.53 6 116.612 6H221.322C251.842 6 276.584 30.742 276.584 61.262V129.424Z" fill="#4671C6"/>
<path id="Vector_5" d="M243.746 292.522H211.868V277.34C211.868 277.34 211.868 277.34 211.866 277.34C234.668 263.668 251.964 241.59 259.208 214.634C267.94 214.768 276.518 211.498 283.058 205.614C290.382 199.026 294.582 189.622 294.582 179.816C294.582 170.432 290.874 161.628 284.14 155.03C282.864 153.78 281.496 152.66 280.074 151.632C280.384 148.04 280.582 144.448 280.582 140.928V129.422V61.26C280.584 28.584 254 2 221.322 2H116.612C82.756 2 54.804 27.74 51.282 60.678C40.192 66.56 33.146 78.126 33.146 90.786V140.93C33.146 144.45 33.344 148.04 33.654 151.634C32.232 152.66 30.864 153.782 29.59 155.032C22.856 161.63 19.148 170.434 19.148 179.82C19.148 189.626 23.35 199.03 30.674 205.62C37.15 211.448 45.59 214.638 54.278 214.638H54.52C61.754 241.552 79.008 263.604 101.762 277.282V292.524H69.982C39.596 292.524 14.876 317.244 14.876 347.63V459.522C14.876 461.73 16.668 463.522 18.876 463.522H294.852C297.06 463.522 298.852 461.73 298.852 459.522V347.63C298.852 317.242 274.132 292.522 243.746 292.522V292.522ZM116.612 10H221.322C249.588 10 272.582 32.996 272.582 61.26V125.422H258.324C253.486 125.422 114.8 125.422 116.608 125.422C103.014 125.422 88.562 120.366 77.288 109.898C38.506 73.696 65.106 10 116.612 10ZM262.662 133.802C262.656 133.674 262.658 133.55 262.65 133.422H272.582C272.582 141.414 272.626 143.404 272.394 147.448C269.284 146.232 265.756 145.436 262.828 145.166C262.83 139.094 262.868 137.556 262.662 133.802V133.802ZM41.146 90.786C41.146 82.756 44.852 75.298 50.956 70.416C50.96 70.512 50.972 70.608 50.976 70.706C51.426 80.682 54.172 90.492 58.97 99.256C52.038 115.8 50.9 129.234 50.9 145.168C48.088 145.428 44.468 146.224 41.334 147.45C41.21 145.26 41.146 143.08 41.146 140.93V90.786ZM67.454 111.25L67.432 111.272C68.91 112.92 71.894 115.888 73.44 117.23L73.462 117.206C76.76 120.086 80.566 122.778 83.908 124.698L83.92 124.678C83.924 124.68 83.928 124.682 83.932 124.686L83.92 124.708C93.592 130.242 104.84 133.426 116.612 133.426H254.614C254.744 135.502 254.828 137.274 254.828 139.478V149.024C254.828 151.386 256.864 153.132 258.91 153.024C263.946 152.914 269.178 154.222 273.8 157.076C273.83 157.094 273.864 157.1 273.894 157.118C275.552 158.152 277.116 159.354 278.54 160.75C283.726 165.832 286.582 172.604 286.582 179.822C286.582 187.364 283.348 194.6 277.708 199.674C271.986 204.822 264.27 207.298 256.558 206.49C254.55 206.274 252.706 207.592 252.244 209.55C241.86 253.668 202.638 284.48 156.866 284.48C111.092 284.48 71.872 253.668 61.488 209.552C61.06 207.73 59.434 206.468 57.598 206.468C57.458 206.468 57.316 206.474 57.174 206.49C49.456 207.3 41.746 204.824 36.026 199.678C30.384 194.6 27.15 187.364 27.15 179.824C27.15 172.606 30.006 165.832 35.192 160.75C40.508 155.542 47.75 152.88 54.822 153.028C56.856 153.128 58.904 151.408 58.904 149.028C58.904 137.506 58.224 125 64.38 107.56C65.424 108.846 66.188 109.822 67.454 111.25V111.25ZM290.852 455.52H255.922V382.726C255.922 380.518 254.13 378.726 251.922 378.726C249.714 378.726 247.922 380.518 247.922 382.726V455.52H65.806V382.726C65.806 380.518 64.014 378.726 61.806 378.726C59.598 378.726 57.806 380.518 57.806 382.726V455.52H22.876V347.628C22.876 321.654 44.008 300.522 69.982 300.522H105.762C107.97 300.522 109.762 298.73 109.762 296.522V281.638C124.012 288.608 140.026 292.476 156.864 292.476C173.662 292.476 189.64 288.628 203.866 281.688V296.522C203.866 298.73 205.658 300.522 207.866 300.522H243.744C269.718 300.522 290.85 321.654 290.85 347.628V455.52H290.852Z" fill="#3762CC"/>
<g id="Group_2">
<path id="Vector_6" d="M156.852 249.156C167.69 249.156 176.24 245.162 181.79 239.57C183.346 238.002 183.336 235.468 181.768 233.912C180.2 232.356 177.668 232.368 176.11 233.934C171.904 238.174 165.348 241.154 156.852 241.154C153.504 241.154 150.644 240.78 148.114 240.01C143.906 238.73 140.268 236.628 137.594 233.932C136.812 233.144 135.784 232.75 134.754 232.75C133.736 232.75 132.716 233.136 131.936 233.91C130.368 235.466 130.358 237.998 131.914 239.568C137.496 245.196 146.042 249.156 156.852 249.156V249.156Z" fill="#3762CC"/>
</g>
<path id="Vector_7" d="M486.464 97.426L448.264 122.562C445.626 124.298 445.7 128.194 448.402 129.828L457.374 135.252L377.332 261.718L344.886 175.152C343.028 170.194 338.616 166.656 333.372 165.918C328.132 165.182 322.912 167.364 319.758 171.618L287.558 215.032C284.926 218.58 285.67 223.592 289.218 226.224C292.766 228.854 297.778 228.114 300.41 224.564L330.906 183.446L363.448 270.264C365.386 275.432 370 278.996 375.492 279.562C375.998 279.614 376.504 279.64 377.006 279.64C381.932 279.64 386.502 277.152 389.18 272.918L471.07 143.532L482.092 150.196C484.796 151.83 488.28 150.086 488.59 146.942L493.1 101.438C493.456 97.842 489.482 95.438 486.464 97.426V97.426Z" fill="#4671C6"/>
<g id="Group_3">
<g id="Group_4">
<path id="Vector_8" d="M293.986 351.21C290.672 351.21 287.986 348.524 287.986 345.21V322.636C287.986 319.322 290.672 316.636 293.986 316.636C297.3 316.636 299.986 319.322 299.986 322.636V345.21C299.986 348.524 297.298 351.21 293.986 351.21ZM293.986 306.062C290.672 306.062 287.986 303.376 287.986 300.062V277.488C287.986 274.174 290.672 271.488 293.986 271.488C297.3 271.488 299.986 274.174 299.986 277.488V300.062C299.986 303.376 297.298 306.062 293.986 306.062Z" fill="#6BDDDD"/>
</g>
<g id="Group_5">
<path id="Vector_9" d="M293.986 260.916C290.672 260.916 287.986 258.23 287.986 254.916V243.916C287.986 240.602 290.672 237.916 293.986 237.916C297.3 237.916 299.986 240.602 299.986 243.916V254.916C299.986 258.23 297.298 260.916 293.986 260.916Z" fill="#6BDDDD"/>
</g>
</g>
<g id="Group_6">
<path id="Vector_10" d="M276.584 435.56H156.852C153.538 435.56 150.852 432.874 150.852 429.56V379.434C150.852 376.12 153.538 373.434 156.852 373.434C160.166 373.434 162.852 376.12 162.852 379.434V423.56H276.582C279.896 423.56 282.582 426.246 282.582 429.56C282.582 432.874 279.896 435.56 276.584 435.56Z" fill="#3762CC"/>
</g>
<path id="Vector_11" d="M156.864 395.97C167.542 395.97 176.198 387.314 176.198 376.636C176.198 365.958 167.542 357.302 156.864 357.302C146.186 357.302 137.53 365.958 137.53 376.636C137.53 387.314 146.186 395.97 156.864 395.97Z" fill="#4671C6"/>
<path id="Vector_12" d="M112.334 187.668C123.012 187.668 131.668 179.012 131.668 168.334C131.668 157.656 123.012 149 112.334 149C101.656 149 93 157.656 93 168.334C93 179.012 101.656 187.668 112.334 187.668Z" fill="#4671C6"/>
<path id="Vector_13" d="M202.334 187.668C213.012 187.668 221.668 179.012 221.668 168.334C221.668 157.656 213.012 149 202.334 149C191.656 149 183 157.656 183 168.334C183 179.012 191.656 187.668 202.334 187.668Z" fill="#4671C6"/>
<path id="Vector_14" d="M287.524 503.686C291.39 506.776 296.882 506.77 300.74 503.672L374.496 444.458C394.39 428.554 401.382 400.232 391.388 376.02C380.54 349.734 352.976 336.096 327.028 344.174C312.204 348.788 300.448 359.738 293.96 373.682C287.474 359.738 275.718 348.788 260.894 344.174C233.468 335.638 204.24 351.358 194.848 380.63C187.312 404.116 195.452 430.088 214.128 445.016L287.524 503.686Z" fill="#FF5252"/>
<g id="Group_7">
<path id="Vector_15" d="M294.124 510.024C290.916 510.024 287.706 508.954 285.026 506.812L211.634 448.144C191.336 431.916 183.06 404.294 191.044 379.412C201.048 348.228 232.256 331.076 262.086 340.358C275.192 344.438 286.492 353.358 293.964 365.31C301.436 353.356 312.736 344.436 325.842 340.358C353.706 331.688 383.476 346.362 395.088 374.5C405.8 400.452 398.36 430.506 376.996 447.586L303.246 506.796C300.562 508.946 297.342 510.024 294.124 510.024V510.024ZM245.72 345.85C224.954 345.85 205.732 359.81 198.66 381.852C191.684 403.596 198.906 427.724 216.628 441.894L290.02 500.562C292.44 502.498 295.82 502.492 298.234 500.554L371.99 441.34C390.6 426.464 397.052 400.234 387.69 377.548C377.67 353.266 352.106 340.558 328.216 347.994C314.92 352.132 303.756 362.112 297.588 375.37C296.932 376.782 295.516 377.684 293.962 377.684C292.408 377.684 290.992 376.782 290.336 375.37C284.17 362.112 273.004 352.132 259.708 347.994C255.05 346.542 250.344 345.85 245.72 345.85V345.85Z" fill="#3762CC"/>
</g>
</g>
</g>
</svg>
