<svg id="icons" enable-background="new 0 0 64 64" height="512" viewBox="0 0 64 64" width="512" xmlns="http://www.w3.org/2000/svg"><path d="m32 51h-17v2c0 3.301 2.7 6 6 6h11 11c3.3 0 6-2.699 6-6v-2z" fill="#656d78"/><path d="m15 7v44h17 17v-44z" fill="#e6e9ed"/><path d="m32 53c1.1 0 2 .891 2 2 0 1.101-.9 2-2 2s-2-.899-2-2c0-1.109.9-2 2-2z" fill="#aab2bd"/><path d="m34 31h2c1.66 0 3 1.341 3 3v.95c-1.76 1.13-3.8 1.84-6 2z" fill="#f5f7fa"/><path d="m45 24c0 4.601-2.39 8.641-6 10.95v-.95c0-1.659-1.34-3-3-3h-2v-2.42-.01c1.76-.77 3-2.53 3-4.58v-1.99-.01-5.99h-10v6 1.99c0 2.05 1.24 3.82 3.01 4.59l-.01.021v2.399h-2c-1.66 0-3 1.341-3 3v.95c-3.61-2.31-6-6.35-6-10.95 0-7.18 5.82-13 13-13s13 5.82 13 13z" fill="#4a89dc"/><path d="m30 31 1 5.95c-2.2-.16-4.24-.87-6-2v-.95c0-1.659 1.34-3 3-3z" fill="#f5f7fa"/><path d="m49 53v4c0 3.301-2.7 6-6 6h-22c-3.3 0-6-2.699-6-6v-4c0 3.301 2.7 6 6 6h11 11c3.3 0 6-2.699 6-6z" fill="#545c66"/><path d="m34 31-1 1-1-.5-1 .5-1-1v-2.399l.01-.021c.61.261 1.28.41 1.99.41s1.39-.149 2-.41z" fill="#87bcf4"/><path d="m27 22h10v1.99c0 2.05-1.24 3.811-3 4.58v.01c-.61.261-1.29.41-2 .41s-1.38-.149-1.99-.41c-1.77-.77-3.01-2.54-3.01-4.59z" fill="#eac6bb"/><path d="m26 40c1.66 0 3 1.341 3 3 0 1.65-1.34 3-3 3s-3-1.35-3-3c0-1.659 1.34-3 3-3z" fill="#ed5565"/><path d="m33 32 1-1-1 5.95v.011c-.33.029-.66.039-1 .039s-.67-.01-1-.039v-.011l-1-5.95 1 1 1-.5z" fill="#5d9cec"/><path d="m49 7h-34v-1c0-2.77 2.24-5 5-5h24c2.76 0 5 2.23 5 5z" fill="#656d78"/><path d="m38 40c1.66 0 3 1.341 3 3 0 1.65-1.34 3-3 3s-3-1.35-3-3c0-1.659 1.34-3 3-3z" fill="#a0d468"/><path d="m27 16h10v5.99.01h-10z" fill="#fff"/><path d="m43 60h-22c-3.859 0-7-3.141-7-7 0-.553.447-1 1-1s1 .447 1 1c0 2.757 2.243 5 5 5h22c2.757 0 5-2.243 5-5 0-.553.447-1 1-1s1 .447 1 1c0 3.859-3.141 7-7 7z"/><path d="m29.03 5c-.553 0-1.005-.447-1.005-1s.442-1 .994-1h.011c.552 0 1 .447 1 1s-.448 1-1 1z"/><path d="m35 5h-3c-.553 0-1-.447-1-1s.447-1 1-1h3c.553 0 1 .447 1 1s-.447 1-1 1z"/><path d="m49 7.002c-.553 0-1-.447-1-1 0-2.206-1.794-4-4-4-.553 0-1-.447-1-1s.447-1 1-1c3.309 0 6 2.691 6 6 0 .553-.447 1-1 1z"/><path d="m15 7c-.553 0-1-.447-1-1 0-3.309 2.691-6 6-6 .553 0 1 .447 1 1s-.447 1-1 1c-2.206 0-4 1.794-4 4 0 .553-.447 1-1 1z"/><path d="m44 2h-24c-.553 0-1-.447-1-1s.447-1 1-1h24c.553 0 1 .447 1 1s-.447 1-1 1z"/><path d="m49 8.002h-34c-.553 0-1-.447-1-1s.447-1 1-1h34c.553 0 1 .447 1 1s-.447 1-1 1z"/><path d="m43 64h-22c-3.859 0-7-3.141-7-7v-51c0-.553.447-1 1-1s1 .447 1 1v51c0 2.757 2.243 5 5 5h22c2.757 0 5-2.243 5-5v-50.998c0-.553.447-1 1-1s1 .447 1 1v50.998c0 3.859-3.141 7-7 7z"/><path d="m49 52h-34c-.553 0-1-.447-1-1s.447-1 1-1h34c.553 0 1 .447 1 1s-.447 1-1 1z"/><path d="m32 58c-1.654 0-3-1.346-3-3s1.346-3 3-3 3 1.346 3 3-1.346 3-3 3zm0-4c-.552 0-1 .448-1 1s.448 1 1 1 1-.448 1-1-.448-1-1-1z"/><path d="m32 38.002c-7.72 0-14-6.28-14-14s6.28-14 14-14 14 6.28 14 14-6.28 14-14 14zm0-26c-6.617 0-12 5.383-12 12s5.383 12 12 12 12-5.383 12-12-5.383-12-12-12z"/><path d="m32 29.994c-3.309 0-6-2.69-6-5.998 0-.553.447-1 1-1s1 .447 1 1c0 2.204 1.794 3.998 4 3.998s4-1.794 4-3.998c0-.553.447-1 1-1s1 .447 1 1c0 3.308-2.691 5.998-6 5.998z"/><path d="m27 24.992c-.553 0-1-.447-1-1v-1.993c0-.553.447-1 1-1s1 .447 1 1v1.993c0 .553-.447 1-1 1z"/><path d="m37 24.996c-.553 0-1-.447-1-1v-2.003c0-.553.447-1 1-1s1 .447 1 1v2.003c0 .553-.447 1-1 1z"/><path d="m30.001 32c-.553 0-1-.447-1-1v-2.396c0-.553.447-1 1-1s1 .447 1 1v2.396c0 .553-.447 1-1 1z"/><path d="m34 32c-.553 0-1-.447-1-1v-2.423c0-.553.447-1 1-1s1 .447 1 1v2.423c0 .553-.447 1-1 1z"/><path d="m30.001 32.001h-2c-.553 0-1-.447-1-1s.447-1 1-1h2c.553 0 1 .447 1 1s-.447 1-1 1z"/><path d="m25.001 35.001c-.553 0-1-.447-1-1 0-2.206 1.794-4 4-4 .553 0 1 .447 1 1s-.447 1-1 1c-1.103 0-2 .897-2 2 0 .553-.447 1-1 1z"/><path d="m25.001 35.957c-.553 0-1-.447-1-1v-.956c0-.553.447-1 1-1s1 .447 1 1v.956c0 .553-.447 1-1 1z"/><path d="m36 32.001h-2c-.553 0-1-.447-1-1s.447-1 1-1h2c.553 0 1 .447 1 1s-.447 1-1 1z"/><path d="m39 35.001c-.553 0-1-.447-1-1 0-1.103-.897-2-2-2-.553 0-1-.447-1-1s.447-1 1-1c2.206 0 4 1.794 4 4 0 .553-.447 1-1 1z"/><path d="m39 35.957c-.553 0-1-.447-1-1v-.956c0-.553.447-1 1-1s1 .447 1 1v.956c0 .553-.447 1-1 1z"/><path d="m26.001 47c-2.206 0-4-1.794-4-4s1.794-4 4-4 4 1.794 4 4-1.794 4-4 4zm0-6c-1.103 0-2 .897-2 2s.897 2 2 2 2-.897 2-2-.897-2-2-2z"/><path d="m38 47c-2.206 0-4-1.794-4-4s1.794-4 4-4 4 1.794 4 4-1.794 4-4 4zm0-6c-1.103 0-2 .897-2 2s.897 2 2 2 2-.897 2-2-.897-2-2-2z"/><path d="m37 22.999h-10c-.553 0-1-.447-1-1v-5.999c0-.553.447-1 1-1h10c.553 0 1 .447 1 1v5.999c0 .553-.447 1-1 1zm-9-2h8v-3.999h-8z"/><path d="m32 21c-.553 0-1-.447-1-1v-2c0-.553.447-1 1-1s1 .447 1 1v2c0 .553-.447 1-1 1z"/><path d="m33 20h-2c-.553 0-1-.447-1-1s.447-1 1-1h2c.553 0 1 .447 1 1s-.447 1-1 1z"/><path d="m31 37.964c-.479 0-.903-.346-.985-.835l-1-5.964c-.091-.544.276-1.06.821-1.151.541-.096 1.06.276 1.151.821l1 5.964c.091.544-.276 1.06-.821 1.151-.056.01-.111.014-.166.014z"/><path d="m33.001 37.964c-.055 0-.11-.004-.166-.014-.545-.092-.912-.607-.821-1.151l1-5.964c.091-.545.607-.916 1.151-.821.545.092.912.607.821 1.151l-1 5.964c-.082.489-.506.835-.985.835z"/><path d="m31.001 33c-.256 0-.512-.098-.707-.293l-1-1c-.391-.391-.391-1.023 0-1.414s1.023-.391 1.414 0l1 1c.391.391.391 1.023 0 1.414-.195.195-.451.293-.707.293z"/><path d="m31.002 33c-.367 0-.72-.202-.896-.553-.247-.493-.047-1.095.447-1.342l.999-.5c.494-.246 1.094-.047 1.342.447.247.493.047 1.095-.447 1.342l-.999.5c-.143.072-.296.106-.446.106z"/><path d="m32.999 33c-.15 0-.303-.034-.446-.105l-1-.5c-.494-.247-.694-.848-.447-1.342.248-.494.847-.693 1.342-.447l1 .5c.494.247.694.848.447 1.342-.176.35-.529.552-.896.552z"/><path d="m33 33c-.256 0-.512-.098-.707-.293-.391-.391-.391-1.023 0-1.414l1-1c.391-.391 1.023-.391 1.414 0s.391 1.023 0 1.414l-1 1c-.195.195-.451.293-.707.293z"/></svg>