<svg id="_x31__x2C_5" enable-background="new 0 0 36 36" height="512" viewBox="0 0 36 36" width="512" xmlns="http://www.w3.org/2000/svg"><path d="m4.167 27.623c0-6.917-3.583-11.667-3.583-15s1.916-10.333 17.249-10.333 17.583 9.417 17.583 13.083c.001 17.167-31.249 24.5-31.249 12.25z" fill="#efefef"/><path d="m7.5 8c-.827 0-1.5-.673-1.5-1.5s.673-1.5 1.5-1.5 1.5.673 1.5 1.5-.673 1.5-1.5 1.5zm0-2c-.275 0-.5.225-.5.5s.225.5.5.5.5-.225.5-.5-.225-.5-.5-.5z" fill="#a4afc1"/><path d="m8.75 15.75c-1.105 0-2 .895-2 2v7.5c0 1.105.895 2 2 2h18.5c1.105 0 2-.895 2-2v-7.5c0-1.105-.895-2-2-2z" fill="#f3f3f1"/><path d="m23.25 18.75-5.25 5.5-5.25-5.5h3.5v-3c0-3.866 3.134-7 7-7-1.933 0-3.5 1.567-3.5 3.5v6.5z" fill="#2fdf84"/><path d="m9 25.25v-7.5c0-1.105.895-2 2-2h-2.25c-1.105 0-2 .895-2 2v7.5c0 1.105.895 2 2 2h2.25c-1.105 0-2-.895-2-2z" fill="#d5dbe1"/><path d="m18.5 15.75c0-1.516.487-2.916 1.307-4.063.271-1.664 1.703-2.938 3.443-2.938-3.866 0-7 3.134-7 7v3h2.25z" fill="#00b871"/><path d="m15 18.75h-2.25l5.25 5.5 1.125-1.179z" fill="#00b871"/><path d="m27.25 28h-18.5c-1.517 0-2.75-1.233-2.75-2.75v-7.5c0-1.517 1.233-2.75 2.75-2.75h4.25v1.5h-4.25c-.689 0-1.25.561-1.25 1.25v7.5c0 .689.561 1.25 1.25 1.25h18.5c.689 0 1.25-.561 1.25-1.25v-7.5c0-.689-.561-1.25-1.25-1.25h-4.25v-1.5h4.25c1.517 0 2.75 1.233 2.75 2.75v7.5c0 1.517-1.233 2.75-2.75 2.75z"/><path d="m18 25c-.205 0-.401-.084-.543-.232l-5.25-5.5c-.207-.217-.265-.537-.146-.813.118-.276.389-.455.689-.455h2.75v-2.25c0-4.273 3.477-7.75 7.75-7.75.414 0 .75.336.75.75s-.336.75-.75.75c-1.517 0-2.75 1.233-2.75 2.75v5.75h2.75c.3 0 .571.179.689.455.118.275.061.596-.146.813l-5.25 5.5c-.142.148-.338.232-.543.232zm-3.497-5.5 3.497 3.664 3.497-3.664h-1.747c-.414 0-.75-.336-.75-.75v-6.5c0-.433.065-.851.186-1.244-1.337 1.146-2.186 2.848-2.186 4.744v3c0 .414-.336.75-.75.75z"/></svg>