<svg id="Capa_1" enable-background="new 0 0 505 505" height="512" viewBox="0 0 505 505" width="512" xmlns="http://www.w3.org/2000/svg"><g><g><path d="m436.556 497.504h-183.38l-48.79-43.93c-6.26-5.63-24.83-14.6-40.29-21.54-6.39-2.86-12.19-6.73-17.2-11.42-6.78-6.33-12.12-14.16-15.53-23l110.11-274.41 30 14.99c1.92.96 3.8 2 5.62 3.12 14.82 9.05 26.13 22.96 31.94 39.46l27.42 77.87c9.95 28.28 11.37 58.87 4.07 87.95l-3.79 15.07c-4.48 17.86.75 36.76 13.77 49.78z" fill="#ffcebf"/><path d="m277.096 141.314v247.97c0 17.31-13.06 31.33-29.16 31.33h-101.04c-6.78-6.33-12.12-14.16-15.53-23l110.11-274.41 30 14.99c1.92.96 3.8 2 5.62 3.12z" fill="#ffb09e"/><path d="m277.097 48.641v317.646c0 17.305-13.056 31.327-29.16 31.327h-150.272c-16.104 0-29.16-14.022-29.16-31.327v-317.646c0-17.305 13.056-31.327 29.16-31.327h150.271c16.105 0 29.161 14.022 29.161 31.327z" fill="#3c87d0"/><path d="m241.478 48.641v317.646c0 17.305-13.056 31.327-29.16 31.327h-114.653c-16.104 0-29.16-14.022-29.16-31.327v-317.646c0-17.305 13.056-31.327 29.16-31.327h114.653c16.105 0 29.16 14.022 29.16 31.327z" fill="#5f99d7"/><path d="m68.506 72.553h208.58v268.483h-208.58z" fill="#c8effe"/><path d="m68.506 72.553h172.973v268.483h-172.973z" fill="#eaf6ff"/><path d="m214.199 160.224h-82.816c0-17.177 10.453-31.901 25.346-38.179 4.929-2.082 10.357-3.229 16.062-3.229 22.871 0 41.408 18.537 41.408 41.408z" fill="#d8aa5e"/><path d="m182.075 160.224h-50.692c0-17.177 10.453-31.901 25.346-38.179 14.893 6.278 25.346 21.001 25.346 38.179z" fill="#e9b665"/><path d="m214.199 160.224c0 22.86-18.537 41.408-41.408 41.408s-41.408-18.548-41.408-41.408z" fill="#ffcebf"/><path d="m227.615 256.446v84.59h-109.628v-84.59c0-24.231 15.722-44.786 37.52-52.031 5.439-1.806 11.25-2.783 17.294-2.783 30.275 0 54.814 24.538 54.814 54.814z" fill="#e41f2d"/><path d="m193.016 256.446v84.59h-75.029v-84.59c0-24.231 15.722-44.786 37.52-52.031 21.798 7.245 37.509 27.8 37.509 52.031z" fill="#fd4755"/><path d="m170.7 287.435c8.219-8.219 21.267-9.048 30.46-1.935l117.867 73.74v98.115l-148.327-137.262c-9.018-9.018-9.018-23.64 0-32.658z" fill="#ffcebf"/></g><g><path d="m441.862 492.197-86.055-86.055c-11.094-11.094-15.613-27.438-11.793-42.656l3.783-15.069c7.681-30.598 6.204-62.5-4.271-92.258l-27.412-77.878c-5.868-16.67-16.989-31.093-31.528-41.042l.01-88.595s0-.002 0-.003c0-21.409-16.445-38.827-36.66-38.827h-150.271c-20.214 0-36.66 17.418-36.66 38.827v55.781c0 4.143 3.358 7.5 7.5 7.5s7.5-3.357 7.5-7.5v-24.369h193.581v239.253l-34.467-21.481v-41.38c0-24.465-14.178-45.672-34.743-55.864 10.905-7.477 18.644-19.249 20.748-32.86h25.204c4.142 0 7.5-3.357 7.5-7.5s-3.358-7.5-7.5-7.5h-25.204c-3.62-23.42-23.914-41.408-48.333-41.408s-44.713 17.988-48.333 41.408h-25.203c-4.142 0-7.5 3.357-7.5 7.5s3.358 7.5 7.5 7.5h25.204c2.104 13.616 9.848 25.391 20.758 32.867-20.558 10.195-34.73 31.397-34.73 55.857v77.091h-34.481v-188.032c0-4.143-3.358-7.5-7.5-7.5s-7.5 3.357-7.5 7.5v220.782c0 21.409 16.445 38.827 36.66 38.827h28.788c7.097 14.988 19.201 26.875 34.572 33.769 28.479 12.771 36.299 18.426 38.341 20.267l48.791 43.926c1.377 1.239 3.165 1.926 5.018 1.926h23.921c4.142 0 7.5-3.357 7.5-7.5s-3.358-7.5-7.5-7.5h-21.042l-46.65-41.998c-2.111-1.902-8.538-7.691-42.241-22.808-9.786-4.388-17.884-11.348-23.573-20.081 0 0 106.633-.064 107.761-.175l16.04 14.846c7.081 6.554 17.297-4.429 10.189-11.008l-18.696-17.305c-.001-.001-.003-.002-.004-.003l-82.972-76.767c-5.971-6.069-5.828-15.939.146-21.913 6.254-6.254 14.236-5.246 21.143-.924l74.778 46.605c4.693 4.38 12.611.939 12.611-5.479v-176.532c7.78 7.396 13.782 16.585 17.378 26.802l27.412 77.878c9.495 26.974 10.833 55.891 3.871 83.625l-3.783 15.069c-5.097 20.305.933 42.113 15.735 56.916l73.252 73.251h-105.896c-4.142 0-7.5 3.357-7.5 7.5s3.358 7.5 7.5 7.5h124.002c6.53 0 9.923-8.183 5.304-12.803zm-365.856-427.144v-16.412c0-13.139 9.716-23.827 21.66-23.827h150.271c11.942 0 21.659 10.688 21.66 23.825l-.007 16.414zm96.786 61.259c16.12 0 29.638 11.31 33.062 26.408h-66.124c3.423-15.099 16.942-26.408 33.062-26.408zm33.062 41.408c-3.424 15.099-16.942 26.408-33.062 26.408s-29.639-11.31-33.062-26.408zm-108.189 222.393c-11.943 0-21.66-10.688-21.66-23.827v-17.751l114.383.002 44.94 41.576zm89.371-116.947c-16.248 0-30.144 13.605-30.582 29.822-.374 13.87 8.457 21.974 17.723 30.547h-48.69v-77.091c0-26.091 21.226-47.316 47.316-47.316s47.316 21.226 47.316 47.316v32.031c-10.057-6.267-20.75-15.309-33.083-15.309z"/><path d="m153.968 361.513c-4.142 0-7.5 3.357-7.5 7.5s3.358 7.5 7.5 7.5h37.666c4.142 0 7.5-3.357 7.5-7.5s-3.358-7.5-7.5-7.5z"/><path d="m186.247 37.434h-26.911c-4.142 0-7.5 3.357-7.5 7.5s3.358 7.5 7.5 7.5h26.911c4.142 0 7.5-3.357 7.5-7.5s-3.358-7.5-7.5-7.5z"/><path d="m227.62 36.967c-4.4 0-7.967 3.567-7.967 7.967s3.567 7.967 7.967 7.967 7.967-3.567 7.967-7.967-3.567-7.967-7.967-7.967z"/><path d="m309.1 27.289c1.932 0 3.864-.742 5.331-2.225l12.162-12.289c2.914-2.944 2.889-7.692-.056-10.606-2.943-2.913-7.692-2.89-10.606.056l-12.162 12.289c-4.581 4.629-1.188 12.775 5.331 12.775z"/><path d="m315.93 87.642c6.806 6.878 17.465-3.676 10.662-10.551l-12.162-12.289c-2.914-2.945-7.663-2.968-10.606-.056-2.944 2.914-2.969 7.662-.056 10.606z"/><path d="m313.761 44.934c0 4.143 3.358 7.5 7.5 7.5h17.484c4.142 0 7.5-3.357 7.5-7.5s-3.358-7.5-7.5-7.5h-17.484c-4.142 0-7.5 3.357-7.5 7.5z"/></g></g></svg>