<?xml version="1.0" encoding="iso-8859-1"?>
<!-- Generator: Adobe Illustrator 19.0.0, SVG Export Plug-In . SVG Version: 6.00 Build 0)  -->
<svg version="1.1" id="Capa_1" xmlns="http://www.w3.org/2000/svg" xmlns:xlink="http://www.w3.org/1999/xlink" x="0px" y="0px"
	 viewBox="0 0 496 496" style="enable-background:new 0 0 496 496;" xml:space="preserve">
<path style="fill:#AFB8C9;" d="M248,231.64h0.08H248z"/>
<path style="fill:#92E0C0;" d="M128,328l-71.432-71.432c-10.608-10.608-16.568-25-16.568-40l0,0C40,185.328,65.328,160,96.568,160
	l0,0c15,0,29.392,5.96,40,16.568L144,184l7.432-7.432c10.608-10.608,25-16.568,40-16.568l0,0c31.24,0,56.568,25.328,56.568,56.568
	l0,0c0,15-5.96,29.392-16.568,40L160,328H128z"/>
<path style="fill:#2f9d71;" d="M191.432,160c-5.472,0-10.848,0.816-16,2.336c23.44,6.904,40.568,28.56,40.568,54.24
	c0,15-5.96,29.392-16.568,40L128,328h32l71.432-71.432c10.608-10.608,16.568-25,16.568-40C248,185.328,222.672,160,191.432,160z"/>
<g>
	<path style="fill:#92E0C0;" d="M88,40H56V8h32c8.84,0,16,7.16,16,16l0,0C104,32.84,96.84,40,88,40z"/>
	<path style="fill:#92E0C0;" d="M200,40h32V8h-32c-8.84,0-16,7.16-16,16l0,0C184,32.84,191.16,40,200,40z"/>
	<circle style="fill:#92E0C0;" cx="432" cy="248" r="56"/>
</g>
<path style="fill:#48C397;" d="M432,280c-26.808,0-49.184-18.848-54.68-44c-0.848,3.872-1.32,7.88-1.32,12c0,30.928,25.072,56,56,56
	s56-25.072,56-56c0-4.12-0.472-8.128-1.32-12C481.184,261.152,458.808,280,432,280z"/>
<g>
	<circle style="fill:#ECECEC;" cx="432" cy="248" r="24"/>
	<rect x="128" y="328" style="fill:#ECECEC;" width="32" height="48"/>
</g>
<path d="M208,216.568c0,4.36-1.768,8.632-4.856,11.728l11.32,11.296c6.056-6.064,9.536-14.456,9.536-23.024
	c0-17.96-14.608-32.568-32.568-32.568v16C200.568,200,208,207.432,208,216.568z"/>
<polygon points="136,272 152,272 152,256 168,256 168,240 152,240 152,224 136,224 136,240 120,240 120,256 136,256 "/>
<path d="M496,248c0-35.288-28.712-64-64-64s-64,28.712-64,64c0,32.576,24.48,59.488,56,63.448V440c0,22.056-17.944,40-40,40
	s-40-17.944-40-40v-72c0-30.872-25.12-56-56-56s-56,25.128-56,56v72c0,22.056-17.944,40-40,40s-40-17.944-40-40v-56h16v-52.688
	l69.088-69.088c6.712-6.712,11.704-14.68,14.888-23.328c1.016-0.96,1.808-1.736,2.144-2.096C275.968,210.896,288,177.936,288,144V56
	c0-22.056-17.944-40-40-40h-8V0h-40c-13.232,0-24,10.768-24,24s10.768,24,24,24h40V32h8c13.232,0,24,10.768,24,24v88
	c0,22.424-5.928,44.344-16.736,63.368C250.776,176.12,223.904,152,191.432,152c-17.248,0-33.464,6.72-45.656,18.912L144,172.688
	l-1.776-1.776C130.032,158.72,113.816,152,96.568,152c-32.424,0-59.264,24.048-63.816,55.224C21.88,188.072,16,166.296,16,144V56
	c0-13.232,10.768-24,24-24h8v16h40c13.232,0,24-10.768,24-24S101.232,0,88,0H48v16h-8C17.944,16,0,33.944,0,56v88
	c0,34.12,12.152,67.208,34.68,93.688c0,0,0.576,0.56,1.384,1.328c3.192,8.608,8.16,16.528,14.84,23.208L120,331.312V384h16v56
	c0,30.872,25.12,56,56,56s56-25.128,56-56v-72c0-22.056,17.944-40,40-40s40,17.944,40,40v72c0,30.872,25.12,56,56,56
	s56-25.128,56-56V311.448C471.52,307.488,496,280.576,496,248z M224,32h-24c-4.408,0-8-3.584-8-8s3.592-8,8-8h24V32z M64,16h24
	c4.408,0,8,3.584,8,8s-3.592,8-8,8H64V16z M152,368h-16v-32h16V368z M48,216.568C48,189.792,69.792,168,96.568,168
	c12.976,0,25.168,5.056,34.344,14.224L144,195.312l13.088-13.088c9.176-9.168,21.368-14.224,34.344-14.224
	C218.208,168,240,189.792,240,216.568c0,12.968-5.048,25.168-14.224,34.344L156.688,320h-25.376l-69.088-69.088
	C53.048,241.744,48,229.536,48,216.568z M432,296c-26.472,0-48-21.528-48-48s21.528-48,48-48s48,21.528,48,48S458.472,296,432,296z"
	/>
<path d="M432,216c-17.648,0-32,14.352-32,32s14.352,32,32,32s32-14.352,32-32S449.648,216,432,216z M432,264
	c-8.824,0-16-7.176-16-16s7.176-16,16-16s16,7.176,16,16S440.824,264,432,264z"/>
<g>
</g>
<g>
</g>
<g>
</g>
<g>
</g>
<g>
</g>
<g>
</g>
<g>
</g>
<g>
</g>
<g>
</g>
<g>
</g>
<g>
</g>
<g>
</g>
<g>
</g>
<g>
</g>
<g>
</g>
</svg>
